<svg width="24" height="24" viewBox="0 0 24 24" fill="none" xmlns="http://www.w3.org/2000/svg">
<path d="M13.31 20.4C11.9877 20.6065 10.6353 20.4979 9.3629 20.083C8.09051 19.6681 6.93407 18.9586 5.98773 18.0122C5.04138 17.0659 4.33187 15.9094 3.91695 14.6371C3.50203 13.3647 3.39342 12.0123 3.59997 10.69C3.07871 9.69848 2.88823 8.56626 3.05638 7.45879C3.22454 6.35132 3.74251 5.32666 4.53458 4.53458C5.32666 3.74251 6.35132 3.22454 7.45879 3.05638C8.56626 2.88823 9.69848 3.07871 10.69 3.59997C12.0123 3.39342 13.3647 3.50203 14.6371 3.91695C15.9094 4.33187 17.0659 5.04138 18.0122 5.98773C18.9586 6.93407 19.6681 8.09051 20.083 9.3629C20.4979 10.6353 20.6065 11.9877 20.4 13.31C20.9212 14.3015 21.1117 15.4337 20.9436 16.5412C20.7754 17.6486 20.2574 18.6733 19.4654 19.4654C18.6733 20.2574 17.6486 20.7754 16.5412 20.9436C15.4337 21.1117 14.3015 20.9212 13.31 20.4ZM12.052 17.156H12.012C14.884 17.156 16.315 15.77 16.315 13.913C16.315 12.715 15.764 11.442 13.589 10.955L11.606 10.515C10.851 10.343 9.98397 10.115 9.98397 9.39997C9.98397 8.68497 10.604 8.18697 11.708 8.18697C13.938 8.18697 13.735 9.71497 14.839 9.71497C15.415 9.71497 15.932 9.37297 15.932 8.78497C15.932 7.41497 13.735 6.38497 11.876 6.38497C9.85497 6.38497 7.70297 7.24397 7.70297 9.52897C7.70297 10.627 8.09697 11.799 10.263 12.342L12.952 13.013C13.768 13.215 13.97 13.672 13.97 14.085C13.97 14.772 13.286 15.443 12.052 15.443C9.63497 15.443 9.97397 13.586 8.67797 13.586C8.09797 13.586 7.67497 13.984 7.67497 14.557C7.67497 15.671 9.02697 17.155 12.052 17.155V17.156Z" fill="#FFFFFF"/>
</svg>
